<svg width="48" height="48" viewBox="0 0 48 48" fill="none" xmlns="http://www.w3.org/2000/svg">
<path d="M17 35L11 40V31H4.92308C4.14782 31 3.40434 30.692 2.85614 30.1438C2.30796 29.5956 2 28.8522 2 28.077V4.92308C2 4.14782 2.30796 3.40434 2.85614 2.85614C3.40434 2.30796 4.14782 2 4.92308 2H37.077C37.8522 2 38.5956 2.30796 39.1438 2.85614C39.692 3.40434 40 4.14782 40 4.92308V13.6238" stroke="#001F3F" stroke-width="3" stroke-linecap="round" stroke-linejoin="round"/>
<path d="M10 10H32" stroke="#001F3F" stroke-width="3" stroke-linecap="round" stroke-linejoin="round"/>
<path d="M10 18H20" stroke="#001F3F" stroke-width="3" stroke-linecap="round" stroke-linejoin="round"/>
<path d="M34 38C38.4182 38 42 34.4182 42 30C42 25.5818 38.4182 22 34 22C29.5818 22 26 25.5818 26 30C26 34.4182 29.5818 38 34 38Z" stroke="#001F3F" stroke-width="3" stroke-linecap="round" stroke-linejoin="round"/>
<path d="M44 44C43.0334 42.7918 41.5924 41.7812 39.831 41.0768C38.0696 40.3722 36.054 40 34 40C31.946 40 29.9304 40.3722 28.169 41.0768C26.4076 41.7812 24.9666 42.7918 24 44" stroke="#001F3F" stroke-width="3" stroke-linecap="round" stroke-linejoin="round"/>
</svg>
