<svg width="48" height="48" viewBox="0 0 48 48" fill="none" xmlns="http://www.w3.org/2000/svg">
<g clip-path="url(#clip0_12_327)">
<path d="M35.2496 17.9999V19.4999L35.265 19.4998L35.2496 17.9999ZM37.4996 20.6978L38.9644 21.0204C38.9672 21.0078 38.97 20.995 38.9724 20.9822L37.4996 20.6978ZM10.5459 20.6978L9.07372 20.9854C9.076 20.9972 9.07842 21.0088 9.08098 21.0204L10.5459 20.6978ZM12.7998 17.9999L12.7786 19.4998H12.7998V17.9999ZM35.265 19.4998C35.3788 19.4986 35.4914 19.5228 35.5948 19.5705L36.853 16.8471C36.3458 16.6128 35.793 16.4942 35.2344 16.4999L35.265 19.4998ZM35.5948 19.5705C35.6982 19.6182 35.7896 19.6884 35.8626 19.7758L38.1666 17.8545C37.8088 17.4255 37.36 17.0813 36.853 16.8471L35.5948 19.5705ZM35.8626 19.7758C35.9356 19.8633 35.988 19.9658 36.0164 20.076L38.9216 19.3276C38.7822 18.7867 38.5244 18.2835 38.1666 17.8545L35.8626 19.7758ZM36.0164 20.076C36.0448 20.1864 36.0484 20.3016 36.0268 20.4134L38.9724 20.9822C39.0784 20.4338 39.061 19.8686 38.9216 19.3276L36.0164 20.076ZM36.0348 20.3752C35.432 23.112 33.9126 25.561 31.7282 27.3168L33.6076 29.655C36.3248 27.4712 38.2146 24.4248 38.9644 21.0204L36.0348 20.3752ZM31.7282 27.3168C29.5438 29.0724 26.8252 30.0294 24.0228 30.0294V33.0294C27.5088 33.0294 30.8904 31.839 33.6076 29.655L31.7282 27.3168ZM24.0228 30.0294C21.2202 30.0294 18.5018 29.0724 16.3173 27.3168L14.438 29.655C17.1552 31.839 20.5366 33.0294 24.0228 33.0294V30.0294ZM16.3173 27.3168C14.1329 25.561 12.6135 23.112 12.0107 20.3752L9.08098 21.0204C9.8308 24.4248 11.7207 27.4712 14.438 29.655L16.3173 27.3168ZM12.018 20.4102C11.9962 20.2986 11.9996 20.1836 12.0279 20.0734L9.12226 19.3269C8.9829 19.8693 8.96632 20.436 9.07372 20.9854L12.018 20.4102ZM12.0279 20.0734C12.0561 19.9634 12.1086 19.861 12.1815 19.7738L9.87924 17.8504C9.52022 18.2801 9.2616 18.7846 9.12226 19.3269L12.0279 20.0734ZM12.1815 19.7738C12.2544 19.6865 12.3458 19.6167 12.4491 19.5693L11.1976 16.8428C10.6887 17.0764 10.2383 17.4207 9.87924 17.8504L12.1815 19.7738ZM12.4491 19.5693C12.5524 19.5218 12.665 19.4982 12.7786 19.4998L12.8211 16.5C12.2611 16.4921 11.7065 16.6092 11.1976 16.8428L12.4491 19.5693ZM12.7998 19.4998L35.2496 19.4999V16.4999H12.7998V19.4998Z" fill="#001F3F"/>
<path d="M37.592 47.0152C37.8768 47.7932 38.7382 48.193 39.5162 47.9082C40.294 47.6234 40.6938 46.7618 40.409 45.9838L37.592 47.0152ZM33.875 28.138C33.5902 27.3602 32.7288 26.9604 31.9508 27.2452C31.1728 27.53 30.7732 28.3916 31.058 29.1694L33.875 28.138ZM40.409 45.9838L33.875 28.138L31.058 29.1694L37.592 47.0152L40.409 45.9838Z" fill="#001F3F"/>
<path d="M7.59136 45.9838C7.30654 46.7618 7.70626 47.6234 8.48418 47.9082C9.2621 48.193 10.1236 47.7932 10.4084 47.0152L7.59136 45.9838ZM16.9424 29.1694C17.2272 28.3916 16.8275 27.53 16.0496 27.2452C15.2716 26.9604 14.4101 27.3602 14.1253 28.138L16.9424 29.1694ZM10.4084 47.0152L16.9424 29.1694L14.1253 28.138L7.59136 45.9838L10.4084 47.0152Z" fill="#001F3F"/>
<path d="M36.803 41.9996C37.6314 41.9996 38.303 41.328 38.303 40.4996C38.303 39.6712 37.6314 38.9996 36.803 38.9996V41.9996ZM11.1952 38.9996C10.3668 38.9996 9.69519 39.6712 9.69519 40.4996C9.69519 41.328 10.3668 41.9996 11.1952 41.9996V38.9996ZM36.803 38.9996H11.1952V41.9996H36.803V38.9996Z" fill="#001F3F"/>
<path d="M34.3768 3.14597L35.569 4.05633L35.577 4.04573L34.3768 3.14597ZM35.3468 11.8539L34.1548 10.9433L34.1468 10.9539L35.3468 11.8539ZM33.8228 11.3859C33.3258 12.0486 33.46 12.9888 34.1228 13.4859C34.7856 13.9829 35.7258 13.8486 36.2228 13.1859L33.8228 11.3859ZM36.7756 2.44683C37.2726 1.784 37.138 0.843832 36.4752 0.34691C35.8124 -0.150015 34.8722 -0.0155199 34.3754 0.647312L36.7756 2.44683ZM33.1846 2.23565C32.455 3.19107 32.122 4.39101 32.2548 5.58573L35.2364 5.25429C35.189 4.82705 35.308 4.39799 35.569 4.05633L33.1846 2.23565ZM32.2548 5.58573C32.3876 6.78047 32.976 7.87797 33.8976 8.64985L35.824 6.35003C35.4944 6.07401 35.284 5.68153 35.2364 5.25429L32.2548 5.58573ZM33.8976 8.64985C34.2272 8.92543 34.4394 9.31869 34.487 9.74577L37.4684 9.41297C37.335 8.21777 36.7468 7.12121 35.824 6.35003L33.8976 8.64985ZM34.487 9.74577C34.5346 10.1728 34.4156 10.6018 34.1548 10.9433L36.5388 12.7644C37.2688 11.8088 37.6018 10.6082 37.4684 9.41297L34.487 9.74577ZM34.1468 10.9539L33.8228 11.3859L36.2228 13.1859L36.5468 12.7539L34.1468 10.9539ZM34.3754 0.647312L33.1766 2.24621L35.577 4.04573L36.7756 2.44683L34.3754 0.647312Z" fill="#001F3F"/>
<path d="M22.6504 3.14601L23.8426 4.05637L23.8504 4.04577L22.6504 3.14601ZM23.6204 11.8539L22.4282 10.9433L22.4204 10.9539L23.6204 11.8539ZM22.0964 11.3859C21.5992 12.0487 21.7336 12.9889 22.3964 13.4859C23.059 13.983 23.9992 13.8487 24.4964 13.1859L22.0964 11.3859ZM25.0482 2.44811C25.5452 1.78528 25.4106 0.845114 24.7478 0.34819C24.085 -0.148733 23.1448 -0.0142373 22.648 0.648594L25.0482 2.44811ZM21.4582 2.23569C20.7286 3.19111 20.3956 4.39105 20.5284 5.58577L23.51 5.25433C23.4626 4.82709 23.5818 4.39803 23.8426 4.05637L21.4582 2.23569ZM20.5284 5.58577C20.6612 6.78051 21.2496 7.87801 22.1712 8.64989L24.0974 6.35007C23.768 6.07405 23.5576 5.68157 23.51 5.25433L20.5284 5.58577ZM22.1712 8.64989C22.501 8.92547 22.7128 9.31873 22.7606 9.74581L25.742 9.41301C25.6086 8.21779 25.0202 7.12127 24.0974 6.35007L22.1712 8.64989ZM22.7606 9.74581C22.8082 10.1729 22.689 10.6019 22.4282 10.9433L24.8124 12.7645C25.5424 11.8088 25.8754 10.6082 25.742 9.41301L22.7606 9.74581ZM22.4204 10.9539L22.0964 11.3859L24.4964 13.1859L24.8204 12.7539L22.4204 10.9539ZM22.648 0.648594L21.4502 2.24625L23.8504 4.04577L25.0482 2.44811L22.648 0.648594Z" fill="#001F3F"/>
<path d="M10.6505 3.14597L11.8427 4.05633L11.8506 4.04573L10.6505 3.14597ZM11.6204 11.8539L10.4284 10.9433L10.4205 10.9539L11.6204 11.8539ZM10.0965 11.3859C9.5994 12.0486 9.73372 12.9888 10.3965 13.4859C11.0592 13.9829 11.9994 13.8486 12.4964 13.1859L10.0965 11.3859ZM13.0512 2.44433C13.5481 1.7815 13.4136 0.84133 12.7508 0.344406C12.0879 -0.152517 11.1478 -0.0180216 10.6509 0.64481L13.0512 2.44433ZM9.45828 2.23565C8.72874 3.19107 8.39574 4.39101 8.52854 5.58573L11.5102 5.25429C11.4627 4.82705 11.5818 4.39799 11.8427 4.05633L9.45828 2.23565ZM8.52854 5.58573C8.66136 6.78047 9.24976 7.87797 10.1713 8.64985L12.0976 6.35003C11.7681 6.07401 11.5576 5.68153 11.5102 5.25429L8.52854 5.58573ZM10.1713 8.64985C10.5011 8.92543 10.713 9.31869 10.7607 9.74577L13.7421 9.41297C13.6087 8.21775 13.0204 7.12123 12.0976 6.35003L10.1713 8.64985ZM10.7607 9.74577C10.8083 10.1728 10.6893 10.6018 10.4284 10.9433L12.8124 12.7644C13.5425 11.8088 13.8755 10.6082 13.7421 9.41297L10.7607 9.74577ZM10.4205 10.9539L10.0965 11.3859L12.4964 13.1859L12.8204 12.7539L10.4205 10.9539ZM10.6509 0.64481L9.45028 2.24621L11.8506 4.04573L13.0512 2.44433L10.6509 0.64481Z" fill="#001F3F"/>
</g>
<defs>
<clipPath id="clip0_12_327">
<rect width="48" height="48" fill="white"/>
</clipPath>
</defs>
</svg>
